<svg width="1796" height="100" viewBox="0 0 1796 100" fill="none" xmlns="http://www.w3.org/2000/svg">
<path d="M57.9982 6.50854L57.9583 25.7602L57.9183 45.0119L56.0807 40.5428V40.5313L53.697 83.3892C56.0407 89.0731 57.2925 92.1098 57.3058 92.1212C57.3191 92.1327 58.6508 92.2014 60.2621 92.2702C65.1359 92.4765 71.1816 92.9234 75.7758 93.4161C76.8411 93.5307 77.7466 93.588 77.8132 93.5422C77.8798 93.4964 77.8931 73.9009 77.8798 49.9853L77.8399 6.50854H57.9982Z" fill="url(#paint0_linear)"/>
<path d="M22.1055 6.45067V49.9733C22.1055 73.9119 22.1321 93.5189 22.172 93.5533C22.212 93.5876 23.9298 93.4387 26.0072 93.2439C28.0846 93.0491 30.9476 92.7969 32.3725 92.6938C34.5564 92.5334 41.1082 92.1781 41.8539 92.1667C42.0803 92.1667 42.0936 91.1926 42.1202 73.7286L42.1602 55.2905L43.7448 59.1408C43.9845 59.7367 44.0644 59.92 44.3041 60.5045L46.6878 17.6579C46.1818 16.4318 46.4481 17.0735 45.8755 15.6755C43.9313 10.9427 42.28 6.94342 42.2134 6.76007L42.0803 6.43921H22.1055V6.45067Z" fill="url(#paint1_linear)"/>
<path d="M22.1055 6.45067L42.147 55.3245V55.3016L43.7316 59.152C52.5339 80.5923 57.2613 92.0974 57.2879 92.1203C57.3013 92.1318 58.6329 92.2005 60.2442 92.2693C65.1181 92.4756 71.1639 92.9225 75.7581 93.4152C76.8101 93.5298 77.729 93.5871 77.7822 93.5413L57.9138 44.9997V45.0112L56.0761 40.5421C54.2784 36.1761 53.0799 33.254 45.849 15.6754C43.9048 10.9427 42.2535 6.94342 42.1869 6.76007L42.0537 6.43921H32.0796L22.1055 6.45067Z" fill="#E30A17"/>
<path d="M219.014 31.066C219.416 24.8823 224.387 20.0361 230.576 19.7295C239.539 19.2855 252.348 18.75 262 18.75C271.652 18.75 284.461 19.2855 293.424 19.7295C299.613 20.0361 304.584 24.8823 304.986 31.066C305.371 36.9904 305.75 44.2802 305.75 50C305.75 55.7198 305.371 63.0096 304.986 68.934C304.584 75.1177 299.613 79.9639 293.424 80.2705C284.461 80.7145 271.652 81.25 262 81.25C252.348 81.25 239.539 80.7145 230.576 80.2705C224.387 79.9639 219.416 75.1177 219.014 68.934C218.629 63.0096 218.25 55.7198 218.25 50C218.25 44.2802 218.629 36.9904 219.014 31.066Z" fill="#FC0D1B"/>
<path d="M252.625 37.5V62.5L277.625 50L252.625 37.5Z" fill="white"/>
<ellipse cx="1109.5" cy="49.5" rx="45.5" ry="43.5" fill="#1ED760"/>
<path d="M1129.89 67.5717C1129.14 68.7577 1127.55 69.0898 1126.3 68.3782C1116.48 62.6854 1104.18 61.4045 1089.63 64.5356C1088.23 64.8202 1086.84 64.0137 1086.54 62.6854C1086.24 61.3571 1087.08 60.0288 1088.48 59.7441C1104.38 56.281 1118.03 57.7516 1128.99 64.156C1130.24 64.8677 1130.64 66.3857 1129.89 67.5717ZM1134.97 56.7554C1134.02 58.226 1132.03 58.653 1130.49 57.7991C1119.27 51.2049 1102.18 49.3073 1088.93 53.1499C1087.18 53.6243 1085.39 52.723 1084.89 51.11C1084.39 49.4496 1085.34 47.7418 1087.08 47.2674C1102.23 42.9029 1121.07 44.9902 1133.97 52.5332C1135.42 53.3871 1135.92 55.2847 1134.97 56.7554ZM1135.42 45.4646C1121.97 37.8742 1099.79 37.1626 1086.93 40.8629C1084.89 41.4797 1082.7 40.3885 1082.05 38.3961C1081.4 36.451 1082.6 34.3636 1084.64 33.7469C1099.39 29.4773 1123.91 30.3312 1139.36 39.0602C1141.2 40.1039 1141.8 42.381 1140.7 44.1363C1139.66 45.939 1137.26 46.5558 1135.42 45.4646Z" fill="white"/>
<path d="M686.002 6.26214C686.002 6.26214 711.79 5.10903 725.462 30.9374H683.808C683.808 30.9374 675.947 30.6849 669.232 40.1875C667.303 44.176 665.229 48.2846 667.556 56.3816C664.204 50.7231 649.761 25.6638 649.761 25.6638C649.761 25.6638 659.948 7.28323 686.002 6.26214H686.002Z" fill="#EF3F36"/>
<path d="M724.124 71.8303C724.124 71.8303 712.224 94.6673 682.952 93.538C686.569 87.3031 703.785 57.5945 703.785 57.5945C703.785 57.5945 707.944 50.9392 703.037 40.3917C700.541 36.7277 697.998 32.8955 689.8 30.853C696.395 30.7932 725.39 30.853 725.39 30.853C725.39 30.853 736.252 48.837 724.124 71.8303Z" fill="#FCD900"/>
<path d="M648.061 72.0104C648.061 72.0104 634.16 50.3264 649.784 25.6272C653.389 31.8622 670.606 61.571 670.606 61.571C670.606 61.571 674.319 68.4907 685.929 69.5234C690.354 69.1993 694.959 68.9229 700.843 62.8803C697.599 68.5988 683.047 93.5863 683.047 93.5863C683.047 93.5863 661.973 93.9708 648.06 72.0104H648.061Z" fill="#61BC5B"/>
<path d="M682.94 93.754L688.799 69.3914C688.799 69.3914 695.237 68.8865 700.639 62.9883C697.287 68.863 682.94 93.754 682.94 93.754Z" fill="#5AB055"/>
<path d="M666.375 50.2781C666.375 39.5385 675.115 30.8289 685.894 30.8289C696.672 30.8289 705.413 39.5385 705.413 50.2781C705.413 61.0179 696.672 69.7272 685.894 69.7272C675.115 69.7153 666.375 61.0179 666.375 50.2781Z" fill="white"/>
<path d="M669.642 50.2783C669.642 41.3406 676.912 34.0845 685.894 34.0845C694.863 34.0845 702.146 41.3287 702.146 50.2783C702.146 59.2163 694.876 66.4724 685.894 66.4724C676.924 66.4724 669.642 59.2163 669.642 50.2783Z" fill="url(#paint2_linear)"/>
<path d="M725.378 30.8654L701.253 37.9173C701.253 37.9173 697.612 32.5951 689.788 30.8654C696.575 30.8293 725.378 30.8654 725.378 30.8654Z" fill="#EACA05"/>
<path d="M667.086 55.493C663.698 49.6424 649.761 25.6638 649.761 25.6638L667.628 43.2753C667.628 43.2753 665.796 47.0356 666.483 52.4174L667.086 55.493H667.086Z" fill="#DF3A32"/>
<circle cx="474" cy="50" r="43.75" fill="url(#paint3_linear)"/>
<path d="M495.833 31.9025C496.223 29.3854 493.829 27.3986 491.591 28.3812L447.015 47.9526C445.41 48.6573 445.527 51.0883 447.192 51.6184L456.385 54.5459C458.139 55.1046 460.039 54.8157 461.571 53.7572L482.297 39.4384C482.922 39.0066 483.603 39.8952 483.069 40.4457L468.15 55.827C466.703 57.3191 466.99 59.8474 468.731 60.939L485.434 71.4134C487.308 72.5882 489.718 71.408 490.068 69.1442L495.833 31.9025Z" fill="white"/>
<path fill-rule="evenodd" clip-rule="evenodd" d="M898 96.875C922.162 96.875 941.75 77.2875 941.75 53.125C941.75 28.9625 922.162 9.375 898 9.375C873.838 9.375 854.25 28.9625 854.25 53.125C854.25 60.9715 856.316 68.3355 859.933 74.703L854.25 96.875L877.109 91.5744C883.317 94.9545 890.434 96.875 898 96.875ZM898 90.1442C918.445 90.1442 935.019 73.5702 935.019 53.125C935.019 32.6798 918.445 16.1058 898 16.1058C877.555 16.1058 860.981 32.6798 860.981 53.125C860.981 61.019 863.452 68.3358 867.662 74.3444L864.346 86.7788L877 83.6154C882.967 87.733 890.202 90.1442 898 90.1442Z" fill="#BFC8D0"/>
<path d="M935.5 50C935.5 70.7107 918.711 87.5 898 87.5C890.101 87.5 882.772 85.0575 876.727 80.8864L863.909 84.0909L867.268 71.495C863.003 65.4084 860.5 57.9965 860.5 50C860.5 29.2893 877.289 12.5 898 12.5C918.711 12.5 935.5 29.2893 935.5 50Z" fill="url(#paint4_linear)"/>
<path fill-rule="evenodd" clip-rule="evenodd" d="M898 93.75C922.162 93.75 941.75 74.1625 941.75 50C941.75 25.8375 922.162 6.25 898 6.25C873.838 6.25 854.25 25.8375 854.25 50C854.25 57.8465 856.316 65.2105 859.933 71.578L854.25 93.75L877.109 88.4494C883.317 91.8295 890.434 93.75 898 93.75ZM898 87.0192C918.445 87.0192 935.019 70.4452 935.019 50C935.019 29.5548 918.445 12.9808 898 12.9808C877.555 12.9808 860.981 29.5548 860.981 50C860.981 57.894 863.452 65.2108 867.662 71.2194L864.346 83.6538L877 80.4904C882.967 84.608 890.202 87.0192 898 87.0192Z" fill="white"/>
<path d="M887.063 29.6873C886.022 27.598 884.427 27.783 882.815 27.783C879.934 27.783 875.441 31.2339 875.441 37.6563C875.441 42.9198 877.761 48.6815 885.576 57.3005C893.119 65.6186 903.029 69.9215 911.257 69.775C919.484 69.6285 921.177 62.5484 921.177 60.1574C921.177 59.0977 920.52 58.5689 920.066 58.4252C917.263 57.0797 912.092 54.5725 910.915 54.1014C909.738 53.6304 909.124 54.2675 908.742 54.6141C907.675 55.631 905.56 58.6276 904.836 59.3016C904.112 59.9757 903.032 59.6345 902.583 59.3797C900.929 58.7163 896.447 56.7223 892.873 53.2584C888.454 48.9745 888.195 47.5006 887.362 46.1887C886.696 45.1391 887.185 44.4951 887.429 44.2137C888.381 43.1151 889.696 41.4189 890.285 40.576C890.875 39.7331 890.407 38.4534 890.126 37.6563C888.918 34.2283 887.895 31.3588 887.063 29.6873Z" fill="white"/>
<rect x="1278.25" y="6.25" width="87.5" height="87.5" rx="6" fill="url(#paint5_radial)"/>
<rect x="1278.25" y="6.25" width="87.5" height="87.5" rx="6" fill="url(#paint6_radial)"/>
<rect x="1278.25" y="6.25" width="87.5" height="87.5" rx="6" fill="url(#paint7_radial)"/>
<path d="M1343.88 32.8125C1343.88 35.4013 1341.78 37.5 1339.19 37.5C1336.6 37.5 1334.5 35.4013 1334.5 32.8125C1334.5 30.2237 1336.6 28.125 1339.19 28.125C1341.78 28.125 1343.88 30.2237 1343.88 32.8125Z" fill="white"/>
<path fill-rule="evenodd" clip-rule="evenodd" d="M1322 65.625C1330.63 65.625 1337.62 58.6294 1337.62 50C1337.62 41.3706 1330.63 34.375 1322 34.375C1313.37 34.375 1306.38 41.3706 1306.38 50C1306.38 58.6294 1313.37 65.625 1322 65.625ZM1322 59.375C1327.18 59.375 1331.38 55.1777 1331.38 50C1331.38 44.8223 1327.18 40.625 1322 40.625C1316.82 40.625 1312.62 44.8223 1312.62 50C1312.62 55.1777 1316.82 59.375 1322 59.375Z" fill="white"/>
<path fill-rule="evenodd" clip-rule="evenodd" d="M1290.75 48.75C1290.75 38.249 1290.75 32.9985 1292.79 28.9877C1294.59 25.4596 1297.46 22.5913 1300.99 20.7936C1305 18.75 1310.25 18.75 1320.75 18.75H1323.25C1333.75 18.75 1339 18.75 1343.01 20.7936C1346.54 22.5913 1349.41 25.4596 1351.21 28.9877C1353.25 32.9985 1353.25 38.249 1353.25 48.75V51.25C1353.25 61.751 1353.25 67.0015 1351.21 71.0123C1349.41 74.5404 1346.54 77.4087 1343.01 79.2064C1339 81.25 1333.75 81.25 1323.25 81.25H1320.75C1310.25 81.25 1305 81.25 1300.99 79.2064C1297.46 77.4087 1294.59 74.5404 1292.79 71.0123C1290.75 67.0015 1290.75 61.751 1290.75 51.25V48.75ZM1320.75 25H1323.25C1328.6 25 1332.24 25.0049 1335.06 25.2347C1337.8 25.4586 1339.2 25.8644 1340.17 26.3624C1342.53 27.5608 1344.44 29.4731 1345.64 31.8251C1346.14 32.8026 1346.54 34.2039 1346.77 36.944C1347 39.757 1347 43.3964 1347 48.75V51.25C1347 56.6036 1347 60.243 1346.77 63.056C1346.54 65.7961 1346.14 67.1974 1345.64 68.1749C1344.44 70.5269 1342.53 72.4392 1340.17 73.6376C1339.2 74.1356 1337.8 74.5414 1335.06 74.7653C1332.24 74.9951 1328.6 75 1323.25 75H1320.75C1315.4 75 1311.76 74.9951 1308.94 74.7653C1306.2 74.5414 1304.8 74.1356 1303.83 73.6376C1301.47 72.4392 1299.56 70.5269 1298.36 68.1749C1297.86 67.1974 1297.46 65.7961 1297.23 63.056C1297 60.243 1297 56.6036 1297 51.25V48.75C1297 43.3964 1297 39.757 1297.23 36.944C1297.46 34.2039 1297.86 32.8026 1298.36 31.8251C1299.56 29.4731 1301.47 27.5608 1303.83 26.3624C1304.8 25.8644 1306.2 25.4586 1308.94 25.2347C1311.76 25.0049 1315.4 25 1320.75 25Z" fill="white"/>
<path d="M1722.41 61.8521C1722.9 57.8086 1724.56 55.5448 1727.68 53.224C1732.15 50.0809 1737.74 51.8589 1737.74 51.8589V41.3115C1739.1 41.2768 1740.45 41.3573 1741.8 41.552V55.1255C1741.8 55.1255 1736.21 53.3475 1731.74 56.4922C1728.62 58.8114 1726.96 61.0769 1726.47 65.1203C1726.45 67.3159 1726.87 70.186 1728.76 72.6676C1728.3 72.4271 1727.82 72.153 1727.33 71.8453C1723.15 69.0386 1722.39 64.8278 1722.41 61.8521ZM1764.86 21.8094C1761.78 18.4388 1760.62 15.0357 1760.2 12.645H1764.07C1764.07 12.645 1763.3 18.9133 1768.92 25.0776L1769 25.1605C1767.48 24.2072 1766.09 23.0821 1764.86 21.8094ZM1783.5 31.3654V44.6658C1783.5 44.6658 1778.56 44.4724 1774.91 43.5428C1769.81 42.2427 1766.53 40.2486 1766.53 40.2486C1766.53 40.2486 1764.26 38.8266 1764.08 38.7275V66.1929C1764.08 67.7222 1763.66 71.5414 1762.38 74.7267C1760.72 78.8937 1758.14 81.6288 1757.67 82.1879C1757.67 82.1879 1754.54 85.8852 1749.02 88.3749C1744.05 90.6209 1739.68 90.564 1738.37 90.6209C1738.37 90.6209 1730.82 90.92 1724.03 86.5043C1722.56 85.5311 1721.19 84.4288 1719.93 83.2117L1719.97 83.2361C1726.76 87.6517 1734.31 87.3527 1734.31 87.3527C1735.62 87.2958 1739.99 87.3527 1744.96 85.1067C1750.47 82.6169 1753.61 78.9196 1753.61 78.9196C1754.08 78.3606 1756.66 75.6254 1758.32 71.4568C1759.59 68.2731 1760.02 64.4523 1760.02 62.9231V35.4608C1760.2 35.5616 1762.46 36.9836 1762.46 36.9836C1762.46 36.9836 1765.74 38.9794 1770.85 40.2779C1774.5 41.2075 1779.44 41.4009 1779.44 41.4009V30.9786C1781.13 31.3573 1782.57 31.4597 1783.5 31.3654Z" fill="#EE1D52"/>
<path d="M1779.44 30.9786V41.3976C1779.44 41.3976 1774.5 41.2042 1770.85 40.2746C1765.74 38.9745 1762.46 36.9804 1762.46 36.9804C1762.46 36.9804 1760.2 35.5584 1760.02 35.4576V62.9263C1760.02 64.4556 1759.6 68.2764 1758.32 71.4601C1756.65 75.6287 1754.08 78.3638 1753.61 78.9229C1753.61 78.9229 1750.48 82.6202 1744.96 85.1099C1739.99 87.3559 1735.62 87.299 1734.31 87.3559C1734.31 87.3559 1726.76 87.655 1719.97 83.2394L1719.93 83.215C1719.22 82.5202 1718.54 81.7866 1717.91 81.0177C1715.74 78.3736 1714.41 75.2468 1714.08 74.3545C1714.08 74.3508 1714.08 74.3469 1714.08 74.3432C1713.54 72.7927 1712.41 69.0695 1712.57 65.4632C1712.84 59.1006 1715.08 55.1953 1715.67 54.217C1717.24 51.549 1719.27 49.162 1721.69 47.1621C1723.83 45.4364 1726.25 44.0633 1728.85 43.0992C1731.67 41.9672 1734.68 41.3604 1737.74 41.3115V51.8589C1737.74 51.8589 1732.15 50.0874 1727.68 53.224C1724.56 55.5448 1722.9 57.8086 1722.41 61.8521C1722.39 64.8278 1723.15 69.0386 1727.33 71.8469C1727.82 72.1557 1728.29 72.4298 1728.76 72.6692C1729.49 73.6176 1730.38 74.4441 1731.39 75.1151C1735.47 77.6975 1738.89 77.8779 1743.26 76.2007C1746.18 75.0794 1748.37 72.5522 1749.39 69.752C1750.03 68.0033 1750.02 66.2433 1750.02 64.4231V12.645H1760.19C1760.61 15.0357 1761.78 18.4388 1764.85 21.8094C1766.08 23.0821 1767.47 24.2072 1768.99 25.1605C1769.44 25.6237 1771.73 27.9135 1774.67 29.3193C1776.18 30.046 1777.79 30.6027 1779.44 30.9786Z" fill="black"/>
<path d="M1710.03 71.1152V71.1234L1710.28 71.8076C1710.25 71.7279 1710.16 71.4858 1710.03 71.1152Z" fill="#69C9D0"/>
<path d="M1728.85 43.099C1726.25 44.0631 1723.83 45.4362 1721.69 47.162C1719.27 49.1664 1717.24 51.5584 1715.67 54.2315C1715.08 55.2066 1712.84 59.1151 1712.57 65.4777C1712.41 69.0839 1713.54 72.8072 1714.08 74.3576C1714.08 74.3614 1714.08 74.3652 1714.08 74.369C1714.42 75.2531 1715.74 78.3799 1717.91 81.0322C1718.54 81.8011 1719.22 82.5347 1719.94 83.2295C1717.64 81.7055 1715.59 79.8631 1713.85 77.7624C1711.7 75.141 1710.38 72.0466 1710.03 71.1333C1710.03 71.1268 1710.03 71.1203 1710.03 71.1138V71.1024C1709.49 69.5536 1708.36 65.8287 1708.51 62.2176C1708.79 55.855 1711.03 51.9497 1711.62 50.9714C1713.18 48.298 1715.22 45.9059 1717.64 43.9019C1719.78 42.1755 1722.19 40.8024 1724.8 39.8389C1726.43 39.1927 1728.12 38.7159 1729.85 38.4169C1732.46 37.9803 1735.12 37.9424 1737.75 38.3048V41.3113C1734.69 41.3592 1731.67 41.966 1728.85 43.099Z" fill="#69C9D0"/>
<path d="M1760.2 12.6449H1750.03V64.4245C1750.03 66.2447 1750.03 67.9999 1749.4 69.7535C1748.37 72.552 1746.18 75.0792 1743.27 76.2006C1738.9 77.8842 1735.48 77.6974 1731.4 75.115C1730.39 74.4469 1729.5 73.6232 1728.76 72.6772C1732.24 74.4535 1735.35 74.4226 1739.2 72.9405C1742.11 71.8191 1744.3 69.2919 1745.33 66.4918C1745.97 64.7431 1745.96 62.983 1745.96 61.1645V9.375H1760.01C1760.01 9.375 1759.85 10.6621 1760.2 12.6449ZM1779.44 28.097V30.9784C1777.79 30.602 1776.19 30.0452 1774.67 29.3191C1771.74 27.9134 1769.45 25.6235 1769 25.1603C1769.52 25.4872 1770.06 25.7846 1770.61 26.0509C1774.19 27.7606 1777.7 28.2709 1779.44 28.097Z" fill="#69C9D0"/>
<circle cx="1534" cy="50" r="43.75" fill="url(#paint8_linear)"/>
<path d="M1550.29 63.3799L1552.24 51.0316H1540.08V43.0218C1540.08 39.6428 1541.77 36.3471 1547.22 36.3471H1552.75V25.8343C1552.75 25.8343 1547.73 25 1542.94 25C1532.92 25 1526.38 30.9154 1526.38 41.6201V51.0316H1515.25V63.3799H1526.38V93.2327C1528.61 93.5749 1530.9 93.75 1533.23 93.75C1535.56 93.75 1537.84 93.5749 1540.08 93.2327V63.3799H1550.29Z" fill="white"/>
<defs>
<linearGradient id="paint0_linear" x1="86.829" y1="71.5953" x2="55.0717" y2="85.5419" gradientUnits="userSpaceOnUse">
<stop stop-color="#B20610"/>
<stop offset="0.255959" stop-color="#B20610"/>
<stop offset="1" stop-color="#590004"/>
</linearGradient>
<linearGradient id="paint1_linear" x1="12.4752" y1="25.5349" x2="46.8197" y2="10.6262" gradientUnits="userSpaceOnUse">
<stop stop-color="#B20610"/>
<stop offset="0.255959" stop-color="#B20610"/>
<stop offset="1" stop-color="#590004"/>
</linearGradient>
<linearGradient id="paint2_linear" x1="685.893" y1="34.3131" x2="685.893" y2="65.4976" gradientUnits="userSpaceOnUse">
<stop stop-color="#86BBE5"/>
<stop offset="1" stop-color="#1072BA"/>
</linearGradient>
<linearGradient id="paint3_linear" x1="474" y1="6.25" x2="474" y2="93.75" gradientUnits="userSpaceOnUse">
<stop stop-color="#37BBFE"/>
<stop offset="1" stop-color="#007DBB"/>
</linearGradient>
<linearGradient id="paint4_linear" x1="930.812" y1="21.875" x2="860.5" y2="87.5" gradientUnits="userSpaceOnUse">
<stop stop-color="#5BD066"/>
<stop offset="1" stop-color="#27B43E"/>
</linearGradient>
<radialGradient id="paint5_radial" cx="0" cy="0" r="1" gradientUnits="userSpaceOnUse" gradientTransform="translate(1309.5 71.875) rotate(-55.3758) scale(79.7488)">
<stop stop-color="#B13589"/>
<stop offset="0.79309" stop-color="#C62F94"/>
<stop offset="1" stop-color="#8A3AC8"/>
</radialGradient>
<radialGradient id="paint6_radial" cx="0" cy="0" r="1" gradientUnits="userSpaceOnUse" gradientTransform="translate(1306.37 96.875) rotate(-65.1363) scale(70.607)">
<stop stop-color="#E0E8B7"/>
<stop offset="0.444662" stop-color="#FB8A2E"/>
<stop offset="0.71474" stop-color="#E2425C"/>
<stop offset="1" stop-color="#E2425C" stop-opacity="0"/>
</radialGradient>
<radialGradient id="paint7_radial" cx="0" cy="0" r="1" gradientUnits="userSpaceOnUse" gradientTransform="translate(1273.56 9.375) rotate(-8.1301) scale(121.534 25.9949)">
<stop offset="0.156701" stop-color="#406ADC"/>
<stop offset="0.467799" stop-color="#6A45BE"/>
<stop offset="1" stop-color="#6A45BE" stop-opacity="0"/>
</radialGradient>
<linearGradient id="paint8_linear" x1="1534" y1="6.25" x2="1534" y2="93.4905" gradientUnits="userSpaceOnUse">
<stop stop-color="#18ACFE"/>
<stop offset="1" stop-color="#0163E0"/>
</linearGradient>
</defs>
</svg>
