<svg width="224" height="75" viewBox="0 0 224 75" fill="none" xmlns="http://www.w3.org/2000/svg">
<rect y="49.2728" width="97.1933" height="29.0784" rx="14.5392" transform="rotate(-30.4613 0 49.2728)" fill="#1B0043"/>
<path d="M5.50125 52.6146C5.50125 55.4358 5.49287 26.4237 5.49287 17.2153C5.49287 8.00701 18.3043 2.80245 26.3115 7.2064C34.3186 11.6104 52.8925 23.6832 68.9068 32.0907C84.3263 40.1859 92.6154 27.3534 93.1447 21.4671C93.1496 20.18 93.158 19.8215 93.1712 20.8186C93.1739 21.0233 93.1651 21.2401 93.1447 21.4671C93.1222 27.298 93.1712 52.1869 93.1712 56.4504C93.1712 61.6551 86.7655 74.8668 71.1515 66.059C55.5376 57.2511 42.1271 50.776 26.5894 42.7406C11.0517 34.7051 5.50125 49.7935 5.50125 52.6146Z" fill="url(#paint0_linear)"/>
<path d="M118.005 52.9657C116.489 52.9657 114.871 52.7908 113.151 52.441C111.431 52.0912 110.09 51.6102 109.128 50.998V46.3191C110.265 47.0187 111.621 47.5872 113.195 48.0245C114.769 48.4326 116.256 48.6367 117.655 48.6367C119.054 48.6367 120.075 48.5201 120.716 48.2868C121.357 48.0245 121.678 47.558 121.678 46.8876C121.678 46.3628 121.503 45.9401 121.153 45.6194C120.833 45.2696 120.293 44.9635 119.535 44.7012C118.807 44.4096 117.67 44.0598 116.125 43.6517C114.375 43.1561 112.991 42.6459 111.97 42.1212C110.979 41.5965 110.221 40.9406 109.697 40.1534C109.201 39.3372 108.953 38.2877 108.953 37.005C108.953 34.9061 109.784 33.3319 111.446 32.2824C113.107 31.2038 115.352 30.6645 118.18 30.6645C119.637 30.6645 121.08 30.8102 122.509 31.1018C123.966 31.3641 125.103 31.7431 125.92 32.2387V36.7427C125.045 36.2179 123.981 35.7952 122.727 35.4746C121.474 35.1539 120.191 34.9935 118.879 34.9935C117.451 34.9935 116.372 35.1393 115.644 35.4308C114.915 35.6932 114.55 36.2179 114.55 37.005C114.55 37.5298 114.74 37.9525 115.119 38.2731C115.527 38.5647 116.052 38.827 116.693 39.0602C117.334 39.2643 118.5 39.585 120.191 40.0223C121.999 40.5178 123.413 41.0572 124.433 41.6402C125.453 42.2232 126.182 42.9229 126.619 43.7391C127.057 44.5554 127.275 45.5757 127.275 46.8001C127.275 48.6658 126.473 50.1672 124.87 51.3041C123.296 52.4119 121.008 52.9657 118.005 52.9657ZM138.705 52.9657C136.198 52.9657 134.142 52.3098 132.539 50.998C130.936 49.657 130.134 47.8641 130.134 45.6194C130.134 43.2873 130.892 41.4653 132.408 40.1534C133.924 38.8416 136.052 38.1857 138.792 38.1857C141.445 38.1857 143.733 38.725 145.657 39.8036V39.2352C145.657 37.7484 145.191 36.6698 144.258 35.9993C143.354 35.3288 141.882 34.9935 139.842 34.9935C138.559 34.9935 137.291 35.1247 136.037 35.3871C134.784 35.6203 133.676 35.9556 132.714 36.3928V32.0638C133.588 31.6556 134.754 31.3204 136.212 31.058C137.699 30.7957 139.127 30.6645 140.497 30.6645C144.141 30.6645 146.838 31.4516 148.587 33.0258C150.336 34.5708 151.211 36.7281 151.211 39.4975V52.3098H146.007V50.2546C145.103 51.1292 144.069 51.7997 142.902 52.2661C141.766 52.7325 140.366 52.9657 138.705 52.9657ZM140.06 48.9428C141.285 48.9428 142.392 48.7096 143.383 48.2431C144.375 47.7475 145.133 47.077 145.657 46.2316V43.9141C144.054 42.7771 142.217 42.2087 140.148 42.2087C137.203 42.2087 135.731 43.3456 135.731 45.6194C135.731 46.7272 136.095 47.5581 136.824 48.1119C137.582 48.6658 138.661 48.9428 140.06 48.9428ZM156.246 31.3204H161.581V34.1627C162.572 32.9675 163.753 32.0929 165.123 31.539C166.493 30.956 167.936 30.6645 169.452 30.6645C172.28 30.6645 174.393 31.437 175.792 32.9821C177.192 34.498 177.891 36.524 177.891 39.0602V52.3098H172.382V39.585C172.382 36.524 170.953 34.9935 168.096 34.9935C166.843 34.9935 165.662 35.2996 164.554 35.9118C163.447 36.4949 162.514 37.384 161.756 38.5792V52.3098H156.246V31.3204ZM194.742 52.9657C190.836 52.9657 187.745 51.9892 185.472 50.036C183.198 48.0828 182.061 45.3571 182.061 41.8588C182.061 38.4189 183.067 35.6932 185.078 33.6817C187.09 31.6702 189.961 30.6645 193.692 30.6645C196.141 30.6645 198.226 31.1309 199.946 32.0638C201.695 32.9966 203.007 34.2793 203.881 35.9118C204.756 37.5152 205.193 39.3518 205.193 41.4216V43.9578H187.308C187.687 47.077 190.398 48.6367 195.442 48.6367C196.783 48.6367 198.153 48.5201 199.552 48.2868C200.951 48.0536 202.176 47.733 203.225 47.3248V51.5664C202.234 51.9746 200.951 52.3098 199.377 52.5722C197.832 52.8346 196.287 52.9657 194.742 52.9657ZM199.989 40.1972C199.931 38.5355 199.333 37.2528 198.196 36.3491C197.089 35.4454 195.558 34.9935 193.605 34.9935C191.681 34.9935 190.165 35.46 189.057 36.3928C187.95 37.3257 187.367 38.5938 187.308 40.1972H199.989ZM218.022 52.9657C215.719 52.9657 213.97 52.3244 212.774 51.0417C211.579 49.759 210.981 47.9516 210.981 45.6194V35.5183H207.833V31.3204H210.981V25.0236H216.491V31.3204H221.52V35.5183H216.491V44.9198C216.491 46.2608 216.739 47.2228 217.235 47.8058C217.73 48.3597 218.634 48.6367 219.946 48.6367C220.849 48.6367 221.739 48.4326 222.613 48.0245V52.2224C221.36 52.7179 219.829 52.9657 218.022 52.9657Z" fill="#1B0043"/>
<defs>
<linearGradient id="paint0_linear" x1="31.9496" y1="27.1537" x2="113.128" y2="70.8111" gradientUnits="userSpaceOnUse">
<stop stop-color="#FFCE00"/>
<stop offset="1" stop-color="#E3E3E3" stop-opacity="0.5"/>
</linearGradient>
</defs>
</svg>
