<svg width="99" height="75" viewBox="0 0 99 75" fill="none" xmlns="http://www.w3.org/2000/svg">
<rect y="49.2728" width="97.1933" height="29.0784" rx="14.5392" transform="rotate(-30.4613 0 49.2728)" fill="#1B0043"/>
<path d="M5.50125 52.6146C5.50125 55.4358 5.49287 26.4237 5.49287 17.2153C5.49287 8.00701 18.3043 2.80245 26.3115 7.2064C34.3186 11.6104 52.8925 23.6832 68.9068 32.0907C84.3263 40.1859 92.6154 27.3534 93.1447 21.4671C93.1496 20.18 93.158 19.8215 93.1712 20.8186C93.1739 21.0233 93.1651 21.2401 93.1447 21.4671C93.1222 27.298 93.1712 52.1869 93.1712 56.4504C93.1712 61.6551 86.7655 74.8668 71.1515 66.059C55.5376 57.2511 42.1271 50.776 26.5894 42.7406C11.0517 34.7051 5.50125 49.7935 5.50125 52.6146Z" fill="url(#paint0_linear)"/>
<defs>
<linearGradient id="paint0_linear" x1="31.9496" y1="27.1537" x2="113.128" y2="70.8111" gradientUnits="userSpaceOnUse">
<stop stop-color="#FFCE00"/>
<stop offset="1" stop-color="#E3E3E3" stop-opacity="0.5"/>
</linearGradient>
</defs>
</svg>
