<svg width="31" height="37" viewBox="0 0 31 37" fill="none" xmlns="http://www.w3.org/2000/svg">
<path d="M2 24.5V15.5C2 11.9196 3.42232 8.4858 5.95406 5.95406C8.4858 3.42232 11.9196 2 15.5 2C19.0804 2 22.5142 3.42232 25.0459 5.95406C27.5777 8.4858 29 11.9196 29 15.5V24.5" stroke="#442279" stroke-width="3" stroke-linecap="round" stroke-linejoin="round"/>
<path d="M29 26C29 26.7956 28.6839 27.5587 28.1213 28.1213C27.5587 28.6839 26.7956 29 26 29H24.5C23.7044 29 22.9413 28.6839 22.3787 28.1213C21.8161 27.5587 21.5 26.7956 21.5 26V21.5C21.5 20.7044 21.8161 19.9413 22.3787 19.3787C22.9413 18.8161 23.7044 18.5 24.5 18.5H29V26ZM2 26C2 26.7956 2.31607 27.5587 2.87868 28.1213C3.44129 28.6839 4.20435 29 5 29H6.5C7.29565 29 8.05871 28.6839 8.62132 28.1213C9.18393 27.5587 9.5 26.7956 9.5 26V21.5C9.5 20.7044 9.18393 19.9413 8.62132 19.3787C8.05871 18.8161 7.29565 18.5 6.5 18.5H2V26Z" stroke="#442279" stroke-width="3" stroke-linecap="round" stroke-linejoin="round"/>
<path d="M29 23.5C29.5868 33.9372 26 35.5 16 35.5" stroke="#442279" stroke-width="3" stroke-linecap="round" stroke-linejoin="round"/>
</svg>
